<?xml version="1.0" encoding="UTF-8"?>
<!DOCTYPE svg PUBLIC "-//W3C//DTD SVG 1.1//EN" "http://www.w3.org/Graphics/SVG/1.1/DTD/svg11.dtd">
<svg version="1.1" xmlns="http://www.w3.org/2000/svg" xmlns:xlink="http://www.w3.org/1999/xlink" x="0" y="0" width="680" height="440" viewBox="0, 0, 680, 440">
  <g id="Layer_1">
    <path d="M658.831,5.887 C666.711,5.887 674,11.986 674,20.865 L674,378.909 C674,387.789 666.711,393.887 658.831,393.887 L21.169,393.887 C13.289,393.887 6,387.789 6,378.909 L6,20.865 C6,11.986 13.289,5.887 21.169,5.887 L658.831,5.887 z M658.831,19.887 L21.169,19.887 C20.523,19.887 20,20.325 20,20.865 L20,378.909 C20,379.449 20.523,379.887 21.169,379.887 L658.831,379.887 C659.477,379.887 660,379.449 660,378.909 L660,20.865 C660,20.325 659.477,19.887 658.831,19.887 z" fill="#000000"/>
    <path d="M269.714,390.529 L410.286,390.529 C412.89,390.529 415,392.076 415,393.983 L440,427.075 C440,428.983 437.186,430.529 433.715,430.529 L246.285,430.529 C242.814,430.529 240,428.983 240,427.075 L265,393.983 C265,392.076 267.11,390.529 269.714,390.529 z" fill="#000000"/>
  </g>
</svg>
